<?xml version="1.0" encoding="utf-8"?>
<!-- Generator: Adobe Illustrator 26.4.1, SVG Export Plug-In . SVG Version: 6.00 Build 0)  -->
<svg version="1.1" id="Layer_1" xmlns="http://www.w3.org/2000/svg" xmlns:xlink="http://www.w3.org/1999/xlink" x="0px" y="0px"
	 viewBox="0 0 130 130" style="enable-background:new 0 0 130 130;" xml:space="preserve">
<style type="text/css">
	.st0{clip-path:url(#SVGID_00000033366456361027512150000012126054449574175380_);}
	.st1{fill:#1E1D1F;}
	.st2{fill:#D8D6CC;filter:url(#Adobe_OpacityMaskFilter);}
	.st3{mask:url(#mask0_942_1489_00000008110238546337608370000005938147741626762935_);}
	.st4{fill:#D8D6CC;}
	.st5{fill:#C4C4C4;filter:url(#Adobe_OpacityMaskFilter_00000027594031307308626310000005005470617156932243_);}
	.st6{mask:url(#mask1_942_1489_00000036237305883043454810000014901031068819994781_);}
	.st7{fill:#3B98C6;}
	.st8{fill:#FEB000;}
	.st9{fill:#4DBE3B;}
	.st10{fill:#F16D5F;}
</style>
<g>
	<defs>
		<path id="SVGID_1_" d="M30.6,3.3h68.8c15.1,0,27.3,12.2,27.3,27.3v68.8c0,15.1-12.2,27.3-27.3,27.3H30.6
			c-15.1,0-27.3-12.2-27.3-27.3V30.6C3.3,15.5,15.5,3.3,30.6,3.3z"/>
	</defs>
	<clipPath id="SVGID_00000048497742707626116750000006873053091271851164_">
		<use xlink:href="#SVGID_1_"  style="overflow:visible;"/>
	</clipPath>
	<g style="clip-path:url(#SVGID_00000048497742707626116750000006873053091271851164_);">
		<rect x="3.3" y="3.3" class="st1" width="123.4" height="123.4"/>
		<defs>
			<filter id="Adobe_OpacityMaskFilter" filterUnits="userSpaceOnUse" x="18.4" y="30" width="93.3" height="69.9">
				<feColorMatrix  type="matrix" values="1 0 0 0 0  0 1 0 0 0  0 0 1 0 0  0 0 0 1 0"/>
			</filter>
		</defs>
		
			<mask maskUnits="userSpaceOnUse" x="18.4" y="30" width="93.3" height="69.9" id="mask0_942_1489_00000008110238546337608370000005938147741626762935_">
			<path class="st2" d="M27.3,30h75.4c4.9,0,8.9,4,8.9,8.9v52.1c0,4.9-4,8.9-8.9,8.9H27.3c-4.9,0-8.9-4-8.9-8.9V38.9
				C18.4,34,22.4,30,27.3,30z"/>
		</mask>
		<g class="st3">
			<path class="st4" d="M27.3,30h75.4c4.9,0,8.9,4,8.9,8.9v52.1c0,4.9-4,8.9-8.9,8.9H27.3c-4.9,0-8.9-4-8.9-8.9V38.9
				C18.4,34,22.4,30,27.3,30z"/>
			<defs>
				
					<filter id="Adobe_OpacityMaskFilter_00000152949031868676627400000010210728709420749441_" filterUnits="userSpaceOnUse" x="22.5" y="34.1" width="85" height="61.7">
					<feColorMatrix  type="matrix" values="1 0 0 0 0  0 1 0 0 0  0 0 1 0 0  0 0 0 1 0"/>
				</filter>
			</defs>
			
				<mask maskUnits="userSpaceOnUse" x="22.5" y="34.1" width="85" height="61.7" id="mask1_942_1489_00000036237305883043454810000014901031068819994781_">
				<path style="fill:#C4C4C4;filter:url(#Adobe_OpacityMaskFilter_00000152949031868676627400000010210728709420749441_);" d="
					M28,34.1H102c3,0,5.5,2.5,5.5,5.5v50.7c0,3-2.5,5.5-5.5,5.5H28c-3,0-5.5-2.5-5.5-5.5V39.6C22.5,36.6,24.9,34.1,28,34.1z"/>
			</mask>
			<g class="st6">
				<path class="st7" d="M28,34.1H102c3,0,5.5,2.5,5.5,5.5v28.1c0,3-2.5,5.5-5.5,5.5H28c-3,0-5.5-2.5-5.5-5.5V39.6
					C22.5,36.6,24.9,34.1,28,34.1z"/>
				<g>
					<path class="st8" d="M28,41.7H102c3,0,5.5,2.5,5.5,5.5v28.1c0,3-2.5,5.5-5.5,5.5H28c-3,0-5.5-2.5-5.5-5.5V47.2
						C22.5,44.1,24.9,41.7,28,41.7z"/>
				</g>
				<g>
					<path class="st9" d="M28,49.2H102c3,0,5.5,2.5,5.5,5.5v28.1c0,3-2.5,5.5-5.5,5.5H28c-3,0-5.5-2.5-5.5-5.5V54.7
						C22.5,51.7,24.9,49.2,28,49.2z"/>
				</g>
				<g>
					<path class="st10" d="M28,56.8H102c3,0,5.5,2.5,5.5,5.5v28.1c0,3-2.5,5.5-5.5,5.5H28c-3,0-5.5-2.5-5.5-5.5V62.3
						C22.5,59.2,24.9,56.8,28,56.8z"/>
				</g>
			</g>
			<g>
				<path class="st4" d="M44.7,65H18.4v26.1c0,4.9,4,8.9,8.9,8.9h75.4c4.9,0,8.9-4,8.9-8.9V65H85.3c-3.1,0-6.1,1.2-8.2,3.4l-4.8,4.8
					c-1.9,1.9-4.5,3.1-7.2,3.4c-2.7-0.2-5.3-1.4-7.2-3.4L53,68.4C50.8,66.2,47.8,65,44.7,65z"/>
			</g>
		</g>
	</g>
</g>
</svg>
